<svg xmlns="http://www.w3.org/2000/svg" version="1.1" width="500" height="500">
<rect x="0" y="0" width="500" height="500" style="stroke:#000;fill:none" />
<line x1="250" y1="250" x2="250" y2="200" style="stroke:DarkBlue" />
<line x1="250" y1="250" x2="207" y2="225" style="stroke:DarkBlue" />
<line x1="250" y1="250" x2="207" y2="275" style="stroke:DarkBlue" />
<line x1="250" y1="250" x2="250" y2="300" style="stroke:DarkBlue" />
<line x1="250" y1="250" x2="293" y2="275" style="stroke:DarkBlue" />
<line x1="250" y1="250" x2="293" y2="225" style="stroke:DarkBlue" />
<line x1="250" y1="200" x2="207" y2="175" style="stroke:MidnightBlue" />
<line x1="207" y1="225" x2="163" y2="250" style="stroke:MidnightBlue" />
<line x1="207" y1="275" x2="207" y2="325" style="stroke:MidnightBlue" />
<line x1="250" y1="300" x2="293" y2="325" style="stroke:MidnightBlue" />
<line x1="293" y1="275" x2="337" y2="250" style="stroke:MidnightBlue" />
<line x1="293" y1="225" x2="293" y2="175" style="stroke:MidnightBlue" />
<line x1="207" y1="175" x2="163" y2="200" style="stroke:DarkOliveGreen" />
<line x1="163" y1="250" x2="163" y2="300" style="stroke:DarkOliveGreen" />
<line x1="207" y1="325" x2="250" y2="350" style="stroke:DarkOliveGreen" />
<line x1="293" y1="325" x2="337" y2="300" style="stroke:DarkOliveGreen" />
<line x1="337" y1="250" x2="337" y2="200" style="stroke:DarkOliveGreen" />
<line x1="293" y1="175" x2="250" y2="150" style="stroke:DarkOliveGreen" />
<line x1="163" y1="200" x2="163" y2="250" style="stroke:PaleTurquoise" />
<line x1="163" y1="300" x2="207" y2="325" style="stroke:PaleTurquoise" />
<line x1="250" y1="350" x2="293" y2="325" style="stroke:PaleTurquoise" />
<line x1="337" y1="300" x2="337" y2="250" style="stroke:PaleTurquoise" />
<line x1="337" y1="200" x2="293" y2="175" style="stroke:PaleTurquoise" />
<line x1="250" y1="150" x2="207" y2="175" style="stroke:PaleTurquoise" />
<line x1="163" y1="250" x2="207" y2="275" style="stroke:DarkSlateGrey" />
<line x1="207" y1="325" x2="250" y2="300" style="stroke:DarkSlateGrey" />
<line x1="293" y1="325" x2="293" y2="275" style="stroke:DarkSlateGrey" />
<line x1="337" y1="250" x2="293" y2="225" style="stroke:DarkSlateGrey" />
<line x1="293" y1="175" x2="250" y2="200" style="stroke:DarkSlateGrey" />
<line x1="207" y1="175" x2="207" y2="225" style="stroke:DarkSlateGrey" />
<line x1="207" y1="275" x2="250" y2="250" style="stroke:RebeccaPurple" />
<line x1="250" y1="300" x2="250" y2="250" style="stroke:RebeccaPurple" />
<line x1="293" y1="275" x2="250" y2="250" style="stroke:RebeccaPurple" />
<line x1="293" y1="225" x2="250" y2="250" style="stroke:RebeccaPurple" />
<line x1="250" y1="200" x2="250" y2="250" style="stroke:RebeccaPurple" />
<line x1="207" y1="225" x2="250" y2="250" style="stroke:RebeccaPurple" />
<line x1="207" y1="275" x2="207" y2="250" style="stroke:RebeccaPurple" />
<line x1="250" y1="300" x2="228" y2="288" style="stroke:RebeccaPurple" />
<line x1="293" y1="275" x2="272" y2="287" style="stroke:RebeccaPurple" />
<line x1="293" y1="225" x2="293" y2="250" style="stroke:RebeccaPurple" />
<line x1="250" y1="200" x2="272" y2="212" style="stroke:RebeccaPurple" />
<line x1="207" y1="225" x2="228" y2="212" style="stroke:RebeccaPurple" />
<line x1="163" y1="250" x2="185" y2="238" style="stroke:DarkSlateGrey" />
<line x1="207" y1="325" x2="207" y2="300" style="stroke:DarkSlateGrey" />
<line x1="293" y1="325" x2="272" y2="313" style="stroke:DarkSlateGrey" />
<line x1="337" y1="250" x2="315" y2="262" style="stroke:DarkSlateGrey" />
<line x1="293" y1="175" x2="293" y2="200" style="stroke:DarkSlateGrey" />
<line x1="207" y1="175" x2="228" y2="187" style="stroke:DarkSlateGrey" />
<line x1="185" y1="238" x2="185" y2="213" style="stroke:RebeccaPurple" />
<line x1="207" y1="300" x2="185" y2="288" style="stroke:RebeccaPurple" />
<line x1="272" y1="313" x2="250" y2="325" style="stroke:RebeccaPurple" />
<line x1="315" y1="262" x2="315" y2="287" style="stroke:RebeccaPurple" />
<line x1="293" y1="200" x2="315" y2="213" style="stroke:RebeccaPurple" />
<line x1="228" y1="187" x2="250" y2="175" style="stroke:RebeccaPurple" />
<line x1="185" y1="238" x2="174" y2="231" style="stroke:RebeccaPurple" />
<line x1="207" y1="300" x2="196" y2="306" style="stroke:RebeccaPurple" />
<line x1="272" y1="313" x2="272" y2="325" style="stroke:RebeccaPurple" />
<line x1="315" y1="262" x2="326" y2="269" style="stroke:RebeccaPurple" />
<line x1="293" y1="200" x2="304" y2="194" style="stroke:RebeccaPurple" />
<line x1="228" y1="187" x2="228" y2="175" style="stroke:RebeccaPurple" />
<line x1="163" y1="200" x2="185" y2="213" style="stroke:PaleTurquoise" />
<line x1="163" y1="300" x2="185" y2="288" style="stroke:PaleTurquoise" />
<line x1="250" y1="350" x2="250" y2="325" style="stroke:PaleTurquoise" />
<line x1="337" y1="300" x2="315" y2="287" style="stroke:PaleTurquoise" />
<line x1="337" y1="200" x2="315" y2="213" style="stroke:PaleTurquoise" />
<line x1="250" y1="150" x2="250" y2="175" style="stroke:PaleTurquoise" />
<line x1="185" y1="213" x2="207" y2="200" style="stroke:DarkSlateGrey" />
<line x1="185" y1="288" x2="185" y2="263" style="stroke:DarkSlateGrey" />
<line x1="250" y1="325" x2="228" y2="312" style="stroke:DarkSlateGrey" />
<line x1="315" y1="287" x2="293" y2="300" style="stroke:DarkSlateGrey" />
<line x1="315" y1="213" x2="315" y2="238" style="stroke:DarkSlateGrey" />
<line x1="250" y1="175" x2="272" y2="188" style="stroke:DarkSlateGrey" />
<line x1="207" y1="200" x2="207" y2="175" style="stroke:RebeccaPurple" />
<line x1="185" y1="263" x2="163" y2="250" style="stroke:RebeccaPurple" />
<line x1="228" y1="312" x2="207" y2="325" style="stroke:RebeccaPurple" />
<line x1="293" y1="300" x2="293" y2="325" style="stroke:RebeccaPurple" />
<line x1="315" y1="238" x2="337" y2="250" style="stroke:RebeccaPurple" />
<line x1="272" y1="188" x2="293" y2="175" style="stroke:RebeccaPurple" />
<line x1="207" y1="200" x2="196" y2="194" style="stroke:RebeccaPurple" />
<line x1="185" y1="263" x2="174" y2="269" style="stroke:RebeccaPurple" />
<line x1="228" y1="312" x2="228" y2="325" style="stroke:RebeccaPurple" />
<line x1="293" y1="300" x2="304" y2="306" style="stroke:RebeccaPurple" />
<line x1="315" y1="238" x2="326" y2="231" style="stroke:RebeccaPurple" />
<line x1="272" y1="188" x2="272" y2="175" style="stroke:RebeccaPurple" />
<line x1="185" y1="213" x2="185" y2="200" style="stroke:DarkSlateGrey" />
<line x1="185" y1="288" x2="174" y2="281" style="stroke:DarkSlateGrey" />
<line x1="250" y1="325" x2="239" y2="331" style="stroke:DarkSlateGrey" />
<line x1="315" y1="287" x2="315" y2="300" style="stroke:DarkSlateGrey" />
<line x1="315" y1="213" x2="326" y2="219" style="stroke:DarkSlateGrey" />
<line x1="250" y1="175" x2="261" y2="169" style="stroke:DarkSlateGrey" />
<line x1="185" y1="200" x2="174" y2="194" style="stroke:RebeccaPurple" />
<line x1="174" y1="281" x2="163" y2="287" style="stroke:RebeccaPurple" />
<line x1="239" y1="331" x2="239" y2="344" style="stroke:RebeccaPurple" />
<line x1="315" y1="300" x2="326" y2="306" style="stroke:RebeccaPurple" />
<line x1="326" y1="219" x2="337" y2="213" style="stroke:RebeccaPurple" />
<line x1="261" y1="169" x2="261" y2="156" style="stroke:RebeccaPurple" />
<line x1="185" y1="200" x2="180" y2="203" style="stroke:RebeccaPurple" />
<line x1="174" y1="281" x2="174" y2="288" style="stroke:RebeccaPurple" />
<line x1="239" y1="331" x2="245" y2="334" style="stroke:RebeccaPurple" />
<line x1="315" y1="300" x2="320" y2="297" style="stroke:RebeccaPurple" />
<line x1="326" y1="219" x2="326" y2="213" style="stroke:RebeccaPurple" />
<line x1="261" y1="169" x2="255" y2="166" style="stroke:RebeccaPurple" />
<line x1="207" y1="175" x2="207" y2="200" style="stroke:DarkOliveGreen" />
<line x1="163" y1="250" x2="185" y2="262" style="stroke:DarkOliveGreen" />
<line x1="207" y1="325" x2="228" y2="313" style="stroke:DarkOliveGreen" />
<line x1="293" y1="325" x2="293" y2="300" style="stroke:DarkOliveGreen" />
<line x1="337" y1="250" x2="315" y2="238" style="stroke:DarkOliveGreen" />
<line x1="293" y1="175" x2="272" y2="188" style="stroke:DarkOliveGreen" />
<line x1="207" y1="200" x2="228" y2="213" style="stroke:PaleTurquoise" />
<line x1="185" y1="262" x2="207" y2="250" style="stroke:PaleTurquoise" />
<line x1="228" y1="313" x2="228" y2="288" style="stroke:PaleTurquoise" />
<line x1="293" y1="300" x2="272" y2="287" style="stroke:PaleTurquoise" />
<line x1="315" y1="238" x2="293" y2="250" style="stroke:PaleTurquoise" />
<line x1="272" y1="188" x2="272" y2="213" style="stroke:PaleTurquoise" />
<line x1="228" y1="213" x2="250" y2="200" style="stroke:DarkSlateGrey" />
<line x1="207" y1="250" x2="207" y2="225" style="stroke:DarkSlateGrey" />
<line x1="228" y1="288" x2="207" y2="275" style="stroke:DarkSlateGrey" />
<line x1="272" y1="287" x2="250" y2="300" style="stroke:DarkSlateGrey" />
<line x1="293" y1="250" x2="293" y2="275" style="stroke:DarkSlateGrey" />
<line x1="272" y1="213" x2="293" y2="225" style="stroke:DarkSlateGrey" />
<line x1="250" y1="200" x2="250" y2="175" style="stroke:RebeccaPurple" />
<line x1="207" y1="225" x2="185" y2="212" style="stroke:RebeccaPurple" />
<line x1="207" y1="275" x2="185" y2="287" style="stroke:RebeccaPurple" />
<line x1="250" y1="300" x2="250" y2="325" style="stroke:RebeccaPurple" />
<line x1="293" y1="275" x2="315" y2="288" style="stroke:RebeccaPurple" />
<line x1="293" y1="225" x2="315" y2="213" style="stroke:RebeccaPurple" />
<line x1="250" y1="200" x2="239" y2="194" style="stroke:RebeccaPurple" />
<line x1="207" y1="225" x2="196" y2="231" style="stroke:RebeccaPurple" />
<line x1="207" y1="275" x2="207" y2="287" style="stroke:RebeccaPurple" />
<line x1="250" y1="300" x2="261" y2="306" style="stroke:RebeccaPurple" />
<line x1="293" y1="275" x2="304" y2="269" style="stroke:RebeccaPurple" />
<line x1="293" y1="225" x2="293" y2="213" style="stroke:RebeccaPurple" />
<line x1="228" y1="213" x2="228" y2="200" style="stroke:DarkSlateGrey" />
<line x1="207" y1="250" x2="196" y2="244" style="stroke:DarkSlateGrey" />
<line x1="228" y1="288" x2="218" y2="294" style="stroke:DarkSlateGrey" />
<line x1="272" y1="287" x2="272" y2="300" style="stroke:DarkSlateGrey" />
<line x1="293" y1="250" x2="304" y2="256" style="stroke:DarkSlateGrey" />
<line x1="272" y1="213" x2="282" y2="206" style="stroke:DarkSlateGrey" />
<line x1="228" y1="200" x2="218" y2="194" style="stroke:RebeccaPurple" />
<line x1="196" y1="244" x2="185" y2="250" style="stroke:RebeccaPurple" />
<line x1="218" y1="294" x2="218" y2="306" style="stroke:RebeccaPurple" />
<line x1="272" y1="300" x2="282" y2="306" style="stroke:RebeccaPurple" />
<line x1="304" y1="256" x2="315" y2="250" style="stroke:RebeccaPurple" />
<line x1="282" y1="206" x2="282" y2="194" style="stroke:RebeccaPurple" />
<line x1="228" y1="200" x2="223" y2="203" style="stroke:RebeccaPurple" />
<line x1="196" y1="244" x2="196" y2="250" style="stroke:RebeccaPurple" />
<line x1="218" y1="294" x2="223" y2="297" style="stroke:RebeccaPurple" />
<line x1="272" y1="300" x2="277" y2="297" style="stroke:RebeccaPurple" />
<line x1="304" y1="256" x2="304" y2="250" style="stroke:RebeccaPurple" />
<line x1="282" y1="206" x2="277" y2="203" style="stroke:RebeccaPurple" />
<line x1="207" y1="200" x2="218" y2="194" style="stroke:PaleTurquoise" />
<line x1="185" y1="262" x2="185" y2="250" style="stroke:PaleTurquoise" />
<line x1="228" y1="313" x2="218" y2="306" style="stroke:PaleTurquoise" />
<line x1="293" y1="300" x2="282" y2="306" style="stroke:PaleTurquoise" />
<line x1="315" y1="238" x2="315" y2="250" style="stroke:PaleTurquoise" />
<line x1="272" y1="188" x2="282" y2="194" style="stroke:PaleTurquoise" />
<line x1="218" y1="194" x2="218" y2="181" style="stroke:DarkSlateGrey" />
<line x1="185" y1="250" x2="174" y2="244" style="stroke:DarkSlateGrey" />
<line x1="218" y1="306" x2="207" y2="312" style="stroke:DarkSlateGrey" />
<line x1="282" y1="306" x2="282" y2="319" style="stroke:DarkSlateGrey" />
<line x1="315" y1="250" x2="326" y2="256" style="stroke:DarkSlateGrey" />
<line x1="282" y1="194" x2="293" y2="188" style="stroke:DarkSlateGrey" />
<line x1="218" y1="181" x2="207" y2="175" style="stroke:RebeccaPurple" />
<line x1="174" y1="244" x2="163" y2="250" style="stroke:RebeccaPurple" />
<line x1="207" y1="312" x2="207" y2="325" style="stroke:RebeccaPurple" />
<line x1="282" y1="319" x2="293" y2="325" style="stroke:RebeccaPurple" />
<line x1="326" y1="256" x2="337" y2="250" style="stroke:RebeccaPurple" />
<line x1="293" y1="188" x2="293" y2="175" style="stroke:RebeccaPurple" />
<line x1="218" y1="181" x2="212" y2="184" style="stroke:RebeccaPurple" />
<line x1="174" y1="244" x2="174" y2="250" style="stroke:RebeccaPurple" />
<line x1="207" y1="312" x2="212" y2="316" style="stroke:RebeccaPurple" />
<line x1="282" y1="319" x2="288" y2="316" style="stroke:RebeccaPurple" />
<line x1="326" y1="256" x2="326" y2="250" style="stroke:RebeccaPurple" />
<line x1="293" y1="188" x2="288" y2="184" style="stroke:RebeccaPurple" />
<line x1="218" y1="194" x2="212" y2="191" style="stroke:DarkSlateGrey" />
<line x1="185" y1="250" x2="180" y2="253" style="stroke:DarkSlateGrey" />
<line x1="218" y1="306" x2="218" y2="312" style="stroke:DarkSlateGrey" />
<line x1="282" y1="306" x2="288" y2="309" style="stroke:DarkSlateGrey" />
<line x1="315" y1="250" x2="320" y2="247" style="stroke:DarkSlateGrey" />
<line x1="282" y1="194" x2="282" y2="188" style="stroke:DarkSlateGrey" />
<line x1="212" y1="191" x2="207" y2="194" style="stroke:RebeccaPurple" />
<line x1="180" y1="253" x2="180" y2="259" style="stroke:RebeccaPurple" />
<line x1="218" y1="312" x2="223" y2="316" style="stroke:RebeccaPurple" />
<line x1="288" y1="309" x2="293" y2="306" style="stroke:RebeccaPurple" />
<line x1="320" y1="247" x2="320" y2="241" style="stroke:RebeccaPurple" />
<line x1="282" y1="188" x2="277" y2="184" style="stroke:RebeccaPurple" />
<line x1="212" y1="191" x2="212" y2="194" style="stroke:RebeccaPurple" />
<line x1="180" y1="253" x2="182" y2="255" style="stroke:RebeccaPurple" />
<line x1="218" y1="312" x2="220" y2="311" style="stroke:RebeccaPurple" />
<line x1="288" y1="309" x2="288" y2="306" style="stroke:RebeccaPurple" />
<line x1="320" y1="247" x2="318" y2="245" style="stroke:RebeccaPurple" />
<line x1="282" y1="188" x2="280" y2="189" style="stroke:RebeccaPurple" />
<line x1="250" y1="200" x2="228" y2="212" style="stroke:MidnightBlue" />
<line x1="207" y1="225" x2="207" y2="250" style="stroke:MidnightBlue" />
<line x1="207" y1="275" x2="228" y2="288" style="stroke:MidnightBlue" />
<line x1="250" y1="300" x2="272" y2="288" style="stroke:MidnightBlue" />
<line x1="293" y1="275" x2="293" y2="250" style="stroke:MidnightBlue" />
<line x1="293" y1="225" x2="272" y2="213" style="stroke:MidnightBlue" />
<line x1="228" y1="212" x2="228" y2="237" style="stroke:DarkOliveGreen" />
<line x1="207" y1="250" x2="228" y2="263" style="stroke:DarkOliveGreen" />
<line x1="228" y1="288" x2="250" y2="275" style="stroke:DarkOliveGreen" />
<line x1="272" y1="288" x2="272" y2="263" style="stroke:DarkOliveGreen" />
<line x1="293" y1="250" x2="272" y2="238" style="stroke:DarkOliveGreen" />
<line x1="272" y1="213" x2="250" y2="225" style="stroke:DarkOliveGreen" />
<line x1="228" y1="237" x2="250" y2="250" style="stroke:PaleTurquoise" />
<line x1="228" y1="263" x2="250" y2="250" style="stroke:PaleTurquoise" />
<line x1="250" y1="275" x2="250" y2="250" style="stroke:PaleTurquoise" />
<line x1="272" y1="263" x2="250" y2="250" style="stroke:PaleTurquoise" />
<line x1="272" y1="238" x2="250" y2="250" style="stroke:PaleTurquoise" />
<line x1="250" y1="225" x2="250" y2="250" style="stroke:PaleTurquoise" />
<line x1="250" y1="250" x2="272" y2="238" style="stroke:DarkSlateGrey" />
<line x1="250" y1="250" x2="250" y2="225" style="stroke:DarkSlateGrey" />
<line x1="250" y1="250" x2="228" y2="237" style="stroke:DarkSlateGrey" />
<line x1="250" y1="250" x2="228" y2="262" style="stroke:DarkSlateGrey" />
<line x1="250" y1="250" x2="250" y2="275" style="stroke:DarkSlateGrey" />
<line x1="250" y1="250" x2="272" y2="263" style="stroke:DarkSlateGrey" />
<line x1="272" y1="238" x2="272" y2="213" style="stroke:RebeccaPurple" />
<line x1="250" y1="225" x2="228" y2="212" style="stroke:RebeccaPurple" />
<line x1="228" y1="237" x2="207" y2="250" style="stroke:RebeccaPurple" />
<line x1="228" y1="262" x2="228" y2="287" style="stroke:RebeccaPurple" />
<line x1="250" y1="275" x2="272" y2="288" style="stroke:RebeccaPurple" />
<line x1="272" y1="263" x2="293" y2="250" style="stroke:RebeccaPurple" />
<line x1="272" y1="238" x2="261" y2="231" style="stroke:RebeccaPurple" />
<line x1="250" y1="225" x2="239" y2="231" style="stroke:RebeccaPurple" />
<line x1="228" y1="237" x2="228" y2="250" style="stroke:RebeccaPurple" />
<line x1="228" y1="262" x2="239" y2="269" style="stroke:RebeccaPurple" />
<line x1="250" y1="275" x2="261" y2="269" style="stroke:RebeccaPurple" />
<line x1="272" y1="263" x2="272" y2="250" style="stroke:RebeccaPurple" />
<line x1="250" y1="250" x2="250" y2="238" style="stroke:DarkSlateGrey" />
<line x1="250" y1="250" x2="239" y2="244" style="stroke:DarkSlateGrey" />
<line x1="250" y1="250" x2="239" y2="256" style="stroke:DarkSlateGrey" />
<line x1="250" y1="250" x2="250" y2="262" style="stroke:DarkSlateGrey" />
<line x1="250" y1="250" x2="261" y2="256" style="stroke:DarkSlateGrey" />
<line x1="250" y1="250" x2="261" y2="244" style="stroke:DarkSlateGrey" />
<line x1="250" y1="238" x2="239" y2="231" style="stroke:RebeccaPurple" />
<line x1="239" y1="244" x2="228" y2="250" style="stroke:RebeccaPurple" />
<line x1="239" y1="256" x2="239" y2="269" style="stroke:RebeccaPurple" />
<line x1="250" y1="262" x2="261" y2="269" style="stroke:RebeccaPurple" />
<line x1="261" y1="256" x2="272" y2="250" style="stroke:RebeccaPurple" />
<line x1="261" y1="244" x2="261" y2="231" style="stroke:RebeccaPurple" />
<line x1="250" y1="238" x2="245" y2="241" style="stroke:RebeccaPurple" />
<line x1="239" y1="244" x2="239" y2="250" style="stroke:RebeccaPurple" />
<line x1="239" y1="256" x2="245" y2="259" style="stroke:RebeccaPurple" />
<line x1="250" y1="262" x2="255" y2="259" style="stroke:RebeccaPurple" />
<line x1="261" y1="256" x2="261" y2="250" style="stroke:RebeccaPurple" />
<line x1="261" y1="244" x2="255" y2="241" style="stroke:RebeccaPurple" />
<line x1="228" y1="237" x2="239" y2="231" style="stroke:PaleTurquoise" />
<line x1="228" y1="263" x2="228" y2="250" style="stroke:PaleTurquoise" />
<line x1="250" y1="275" x2="239" y2="269" style="stroke:PaleTurquoise" />
<line x1="272" y1="263" x2="261" y2="269" style="stroke:PaleTurquoise" />
<line x1="272" y1="238" x2="272" y2="250" style="stroke:PaleTurquoise" />
<line x1="250" y1="225" x2="261" y2="231" style="stroke:PaleTurquoise" />
<line x1="239" y1="231" x2="239" y2="219" style="stroke:DarkSlateGrey" />
<line x1="228" y1="250" x2="218" y2="244" style="stroke:DarkSlateGrey" />
<line x1="239" y1="269" x2="228" y2="275" style="stroke:DarkSlateGrey" />
<line x1="261" y1="269" x2="261" y2="281" style="stroke:DarkSlateGrey" />
<line x1="272" y1="250" x2="282" y2="256" style="stroke:DarkSlateGrey" />
<line x1="261" y1="231" x2="272" y2="225" style="stroke:DarkSlateGrey" />
<line x1="239" y1="219" x2="228" y2="212" style="stroke:RebeccaPurple" />
<line x1="218" y1="244" x2="207" y2="250" style="stroke:RebeccaPurple" />
<line x1="228" y1="275" x2="228" y2="287" style="stroke:RebeccaPurple" />
<line x1="261" y1="281" x2="272" y2="288" style="stroke:RebeccaPurple" />
<line x1="282" y1="256" x2="293" y2="250" style="stroke:RebeccaPurple" />
<line x1="272" y1="225" x2="272" y2="213" style="stroke:RebeccaPurple" />
<line x1="239" y1="219" x2="234" y2="222" style="stroke:RebeccaPurple" />
<line x1="218" y1="244" x2="218" y2="250" style="stroke:RebeccaPurple" />
<line x1="228" y1="275" x2="234" y2="278" style="stroke:RebeccaPurple" />
<line x1="261" y1="281" x2="266" y2="278" style="stroke:RebeccaPurple" />
<line x1="282" y1="256" x2="282" y2="250" style="stroke:RebeccaPurple" />
<line x1="272" y1="225" x2="266" y2="222" style="stroke:RebeccaPurple" />
<line x1="239" y1="231" x2="234" y2="228" style="stroke:DarkSlateGrey" />
<line x1="228" y1="250" x2="223" y2="253" style="stroke:DarkSlateGrey" />
<line x1="239" y1="269" x2="239" y2="275" style="stroke:DarkSlateGrey" />
<line x1="261" y1="269" x2="266" y2="272" style="stroke:DarkSlateGrey" />
<line x1="272" y1="250" x2="277" y2="247" style="stroke:DarkSlateGrey" />
<line x1="261" y1="231" x2="261" y2="225" style="stroke:DarkSlateGrey" />
<line x1="234" y1="228" x2="228" y2="231" style="stroke:RebeccaPurple" />
<line x1="223" y1="253" x2="223" y2="259" style="stroke:RebeccaPurple" />
<line x1="239" y1="275" x2="245" y2="278" style="stroke:RebeccaPurple" />
<line x1="266" y1="272" x2="272" y2="269" style="stroke:RebeccaPurple" />
<line x1="277" y1="247" x2="277" y2="241" style="stroke:RebeccaPurple" />
<line x1="261" y1="225" x2="255" y2="222" style="stroke:RebeccaPurple" />
<line x1="234" y1="228" x2="234" y2="231" style="stroke:RebeccaPurple" />
<line x1="223" y1="253" x2="226" y2="255" style="stroke:RebeccaPurple" />
<line x1="239" y1="275" x2="242" y2="273" style="stroke:RebeccaPurple" />
<line x1="266" y1="272" x2="266" y2="269" style="stroke:RebeccaPurple" />
<line x1="277" y1="247" x2="274" y2="245" style="stroke:RebeccaPurple" />
<line x1="261" y1="225" x2="258" y2="227" style="stroke:RebeccaPurple" />
<line x1="228" y1="212" x2="239" y2="219" style="stroke:DarkOliveGreen" />
<line x1="207" y1="250" x2="218" y2="244" style="stroke:DarkOliveGreen" />
<line x1="228" y1="288" x2="228" y2="275" style="stroke:DarkOliveGreen" />
<line x1="272" y1="288" x2="261" y2="281" style="stroke:DarkOliveGreen" />
<line x1="293" y1="250" x2="282" y2="256" style="stroke:DarkOliveGreen" />
<line x1="272" y1="213" x2="272" y2="225" style="stroke:DarkOliveGreen" />
<line x1="239" y1="219" x2="250" y2="213" style="stroke:PaleTurquoise" />
<line x1="218" y1="244" x2="218" y2="231" style="stroke:PaleTurquoise" />
<line x1="228" y1="275" x2="218" y2="269" style="stroke:PaleTurquoise" />
<line x1="261" y1="281" x2="250" y2="287" style="stroke:PaleTurquoise" />
<line x1="282" y1="256" x2="282" y2="269" style="stroke:PaleTurquoise" />
<line x1="272" y1="225" x2="282" y2="231" style="stroke:PaleTurquoise" />
<line x1="250" y1="213" x2="250" y2="200" style="stroke:DarkSlateGrey" />
<line x1="218" y1="231" x2="207" y2="225" style="stroke:DarkSlateGrey" />
<line x1="218" y1="269" x2="207" y2="275" style="stroke:DarkSlateGrey" />
<line x1="250" y1="287" x2="250" y2="300" style="stroke:DarkSlateGrey" />
<line x1="282" y1="269" x2="293" y2="275" style="stroke:DarkSlateGrey" />
<line x1="282" y1="231" x2="293" y2="225" style="stroke:DarkSlateGrey" />
<line x1="250" y1="200" x2="239" y2="194" style="stroke:RebeccaPurple" />
<line x1="207" y1="225" x2="196" y2="231" style="stroke:RebeccaPurple" />
<line x1="207" y1="275" x2="207" y2="287" style="stroke:RebeccaPurple" />
<line x1="250" y1="300" x2="261" y2="306" style="stroke:RebeccaPurple" />
<line x1="293" y1="275" x2="304" y2="269" style="stroke:RebeccaPurple" />
<line x1="293" y1="225" x2="293" y2="213" style="stroke:RebeccaPurple" />
<line x1="250" y1="200" x2="245" y2="203" style="stroke:RebeccaPurple" />
<line x1="207" y1="225" x2="207" y2="231" style="stroke:RebeccaPurple" />
<line x1="207" y1="275" x2="212" y2="278" style="stroke:RebeccaPurple" />
<line x1="250" y1="300" x2="255" y2="297" style="stroke:RebeccaPurple" />
<line x1="293" y1="275" x2="293" y2="269" style="stroke:RebeccaPurple" />
<line x1="293" y1="225" x2="288" y2="222" style="stroke:RebeccaPurple" />
<line x1="250" y1="213" x2="245" y2="209" style="stroke:DarkSlateGrey" />
<line x1="218" y1="231" x2="212" y2="234" style="stroke:DarkSlateGrey" />
<line x1="218" y1="269" x2="218" y2="275" style="stroke:DarkSlateGrey" />
<line x1="250" y1="287" x2="255" y2="291" style="stroke:DarkSlateGrey" />
<line x1="282" y1="269" x2="288" y2="266" style="stroke:DarkSlateGrey" />
<line x1="282" y1="231" x2="282" y2="225" style="stroke:DarkSlateGrey" />
<line x1="245" y1="209" x2="239" y2="212" style="stroke:RebeccaPurple" />
<line x1="212" y1="234" x2="212" y2="241" style="stroke:RebeccaPurple" />
<line x1="218" y1="275" x2="223" y2="278" style="stroke:RebeccaPurple" />
<line x1="255" y1="291" x2="261" y2="288" style="stroke:RebeccaPurple" />
<line x1="288" y1="266" x2="288" y2="259" style="stroke:RebeccaPurple" />
<line x1="282" y1="225" x2="277" y2="222" style="stroke:RebeccaPurple" />
<line x1="245" y1="209" x2="245" y2="212" style="stroke:RebeccaPurple" />
<line x1="212" y1="234" x2="215" y2="236" style="stroke:RebeccaPurple" />
<line x1="218" y1="275" x2="220" y2="273" style="stroke:RebeccaPurple" />
<line x1="255" y1="291" x2="255" y2="288" style="stroke:RebeccaPurple" />
<line x1="288" y1="266" x2="285" y2="264" style="stroke:RebeccaPurple" />
<line x1="282" y1="225" x2="280" y2="227" style="stroke:RebeccaPurple" />
<line x1="239" y1="219" x2="239" y2="212" style="stroke:PaleTurquoise" />
<line x1="218" y1="244" x2="212" y2="241" style="stroke:PaleTurquoise" />
<line x1="228" y1="275" x2="223" y2="278" style="stroke:PaleTurquoise" />
<line x1="261" y1="281" x2="261" y2="288" style="stroke:PaleTurquoise" />
<line x1="282" y1="256" x2="288" y2="259" style="stroke:PaleTurquoise" />
<line x1="272" y1="225" x2="277" y2="222" style="stroke:PaleTurquoise" />
<line x1="239" y1="212" x2="234" y2="209" style="stroke:DarkSlateGrey" />
<line x1="212" y1="241" x2="207" y2="244" style="stroke:DarkSlateGrey" />
<line x1="223" y1="278" x2="223" y2="284" style="stroke:DarkSlateGrey" />
<line x1="261" y1="288" x2="266" y2="291" style="stroke:DarkSlateGrey" />
<line x1="288" y1="259" x2="293" y2="256" style="stroke:DarkSlateGrey" />
<line x1="277" y1="222" x2="277" y2="216" style="stroke:DarkSlateGrey" />
<line x1="234" y1="209" x2="228" y2="212" style="stroke:RebeccaPurple" />
<line x1="207" y1="244" x2="207" y2="250" style="stroke:RebeccaPurple" />
<line x1="223" y1="284" x2="228" y2="288" style="stroke:RebeccaPurple" />
<line x1="266" y1="291" x2="272" y2="288" style="stroke:RebeccaPurple" />
<line x1="293" y1="256" x2="293" y2="250" style="stroke:RebeccaPurple" />
<line x1="277" y1="216" x2="272" y2="213" style="stroke:RebeccaPurple" />
<line x1="234" y1="209" x2="234" y2="212" style="stroke:RebeccaPurple" />
<line x1="207" y1="244" x2="209" y2="245" style="stroke:RebeccaPurple" />
<line x1="223" y1="284" x2="226" y2="283" style="stroke:RebeccaPurple" />
<line x1="266" y1="291" x2="266" y2="288" style="stroke:RebeccaPurple" />
<line x1="293" y1="256" x2="291" y2="255" style="stroke:RebeccaPurple" />
<line x1="277" y1="216" x2="274" y2="217" style="stroke:RebeccaPurple" />
<line x1="239" y1="212" x2="236" y2="214" style="stroke:DarkSlateGrey" />
<line x1="212" y1="241" x2="212" y2="244" style="stroke:DarkSlateGrey" />
<line x1="223" y1="278" x2="226" y2="280" style="stroke:DarkSlateGrey" />
<line x1="261" y1="288" x2="264" y2="286" style="stroke:DarkSlateGrey" />
<line x1="288" y1="259" x2="288" y2="256" style="stroke:DarkSlateGrey" />
<line x1="277" y1="222" x2="274" y2="220" style="stroke:DarkSlateGrey" />
<line x1="236" y1="214" x2="236" y2="217" style="stroke:RebeccaPurple" />
<line x1="212" y1="244" x2="215" y2="245" style="stroke:RebeccaPurple" />
<line x1="226" y1="280" x2="228" y2="278" style="stroke:RebeccaPurple" />
<line x1="264" y1="286" x2="264" y2="283" style="stroke:RebeccaPurple" />
<line x1="288" y1="256" x2="285" y2="255" style="stroke:RebeccaPurple" />
<line x1="274" y1="220" x2="272" y2="222" style="stroke:RebeccaPurple" />
<line x1="236" y1="214" x2="238" y2="215" style="stroke:RebeccaPurple" />
<line x1="212" y1="244" x2="213" y2="243" style="stroke:RebeccaPurple" />
<line x1="226" y1="280" x2="226" y2="278" style="stroke:RebeccaPurple" />
<line x1="264" y1="286" x2="262" y2="285" style="stroke:RebeccaPurple" />
<line x1="288" y1="256" x2="287" y2="257" style="stroke:RebeccaPurple" />
<line x1="274" y1="220" x2="274" y2="222" style="stroke:RebeccaPurple" />
</svg>
