<svg xmlns="http://www.w3.org/2000/svg" version="1.1" width="500" height="500">
<rect x="0" y="0" width="500" height="500" style="stroke:#000;fill:none" />
<line x1="250" y1="250" x2="250" y2="200" style="stroke:DarkGoldenRod" />
<line x1="250" y1="250" x2="221" y2="210" style="stroke:DarkGoldenRod" />
<line x1="250" y1="250" x2="202" y2="235" style="stroke:DarkGoldenRod" />
<line x1="250" y1="250" x2="202" y2="265" style="stroke:DarkGoldenRod" />
<line x1="250" y1="250" x2="221" y2="290" style="stroke:DarkGoldenRod" />
<line x1="250" y1="250" x2="250" y2="300" style="stroke:DarkGoldenRod" />
<line x1="250" y1="250" x2="279" y2="290" style="stroke:DarkGoldenRod" />
<line x1="250" y1="250" x2="298" y2="265" style="stroke:DarkGoldenRod" />
<line x1="250" y1="250" x2="298" y2="235" style="stroke:DarkGoldenRod" />
<line x1="250" y1="250" x2="279" y2="210" style="stroke:DarkGoldenRod" />
<line x1="250" y1="200" x2="208" y2="173" style="stroke:Indigo" />
<line x1="221" y1="210" x2="171" y2="212" style="stroke:Indigo" />
<line x1="202" y1="235" x2="164" y2="266" style="stroke:Indigo" />
<line x1="202" y1="265" x2="190" y2="314" style="stroke:Indigo" />
<line x1="221" y1="290" x2="239" y2="337" style="stroke:Indigo" />
<line x1="250" y1="300" x2="292" y2="327" style="stroke:Indigo" />
<line x1="279" y1="290" x2="329" y2="288" style="stroke:Indigo" />
<line x1="298" y1="265" x2="336" y2="234" style="stroke:Indigo" />
<line x1="298" y1="235" x2="310" y2="186" style="stroke:Indigo" />
<line x1="279" y1="210" x2="261" y2="163" style="stroke:Indigo" />
<line x1="208" y1="173" x2="162" y2="194" style="stroke:OrangeRed" />
<line x1="171" y1="212" x2="146" y2="256" style="stroke:OrangeRed" />
<line x1="164" y1="266" x2="169" y2="316" style="stroke:OrangeRed" />
<line x1="190" y1="314" x2="224" y2="351" style="stroke:OrangeRed" />
<line x1="239" y1="337" x2="288" y2="347" style="stroke:OrangeRed" />
<line x1="292" y1="327" x2="338" y2="306" style="stroke:OrangeRed" />
<line x1="329" y1="288" x2="354" y2="244" style="stroke:OrangeRed" />
<line x1="336" y1="234" x2="331" y2="184" style="stroke:OrangeRed" />
<line x1="310" y1="186" x2="276" y2="149" style="stroke:OrangeRed" />
<line x1="261" y1="163" x2="212" y2="153" style="stroke:OrangeRed" />
<line x1="162" y1="194" x2="155" y2="243" style="stroke:Wheat" />
<line x1="146" y1="256" x2="170" y2="300" style="stroke:Wheat" />
<line x1="169" y1="316" x2="214" y2="338" style="stroke:Wheat" />
<line x1="224" y1="351" x2="273" y2="342" style="stroke:Wheat" />
<line x1="288" y1="347" x2="323" y2="311" style="stroke:Wheat" />
<line x1="338" y1="306" x2="345" y2="257" style="stroke:Wheat" />
<line x1="354" y1="244" x2="330" y2="200" style="stroke:Wheat" />
<line x1="331" y1="184" x2="286" y2="162" style="stroke:Wheat" />
<line x1="276" y1="149" x2="227" y2="158" style="stroke:Wheat" />
<line x1="212" y1="153" x2="177" y2="189" style="stroke:Wheat" />
<line x1="162" y1="194" x2="174" y2="204" style="stroke:Wheat" />
<line x1="146" y1="256" x2="161" y2="257" style="stroke:Wheat" />
<line x1="169" y1="316" x2="182" y2="308" style="stroke:Wheat" />
<line x1="224" y1="351" x2="229" y2="337" style="stroke:Wheat" />
<line x1="288" y1="347" x2="284" y2="332" style="stroke:Wheat" />
<line x1="338" y1="306" x2="326" y2="296" style="stroke:Wheat" />
<line x1="354" y1="244" x2="339" y2="243" style="stroke:Wheat" />
<line x1="331" y1="184" x2="318" y2="192" style="stroke:Wheat" />
<line x1="276" y1="149" x2="271" y2="163" style="stroke:Wheat" />
<line x1="212" y1="153" x2="216" y2="168" style="stroke:Wheat" />
<line x1="208" y1="173" x2="206" y2="188" style="stroke:OrangeRed" />
<line x1="171" y1="212" x2="178" y2="226" style="stroke:OrangeRed" />
<line x1="164" y1="266" x2="177" y2="273" style="stroke:OrangeRed" />
<line x1="190" y1="314" x2="205" y2="311" style="stroke:OrangeRed" />
<line x1="239" y1="337" x2="249" y2="326" style="stroke:OrangeRed" />
<line x1="292" y1="327" x2="294" y2="312" style="stroke:OrangeRed" />
<line x1="329" y1="288" x2="322" y2="274" style="stroke:OrangeRed" />
<line x1="336" y1="234" x2="323" y2="227" style="stroke:OrangeRed" />
<line x1="310" y1="186" x2="295" y2="189" style="stroke:OrangeRed" />
<line x1="261" y1="163" x2="251" y2="174" style="stroke:OrangeRed" />
<line x1="206" y1="188" x2="217" y2="198" style="stroke:Wheat" />
<line x1="178" y1="226" x2="193" y2="227" style="stroke:Wheat" />
<line x1="177" y1="273" x2="190" y2="265" style="stroke:Wheat" />
<line x1="205" y1="311" x2="210" y2="297" style="stroke:Wheat" />
<line x1="249" y1="326" x2="246" y2="312" style="stroke:Wheat" />
<line x1="294" y1="312" x2="283" y2="302" style="stroke:Wheat" />
<line x1="322" y1="274" x2="307" y2="273" style="stroke:Wheat" />
<line x1="323" y1="227" x2="310" y2="235" style="stroke:Wheat" />
<line x1="295" y1="189" x2="290" y2="203" style="stroke:Wheat" />
<line x1="251" y1="174" x2="254" y2="188" style="stroke:Wheat" />
<line x1="206" y1="188" x2="210" y2="187" style="stroke:Wheat" />
<line x1="178" y1="226" x2="180" y2="222" style="stroke:Wheat" />
<line x1="177" y1="273" x2="177" y2="268" style="stroke:Wheat" />
<line x1="205" y1="311" x2="202" y2="308" style="stroke:Wheat" />
<line x1="249" y1="326" x2="245" y2="325" style="stroke:Wheat" />
<line x1="294" y1="312" x2="290" y2="313" style="stroke:Wheat" />
<line x1="322" y1="274" x2="320" y2="278" style="stroke:Wheat" />
<line x1="323" y1="227" x2="323" y2="232" style="stroke:Wheat" />
<line x1="295" y1="189" x2="298" y2="192" style="stroke:Wheat" />
<line x1="251" y1="174" x2="255" y2="175" style="stroke:Wheat" />
<line x1="250" y1="200" x2="236" y2="206" style="stroke:Indigo" />
<line x1="221" y1="210" x2="213" y2="223" style="stroke:Indigo" />
<line x1="202" y1="235" x2="204" y2="249" style="stroke:Indigo" />
<line x1="202" y1="265" x2="213" y2="276" style="stroke:Indigo" />
<line x1="221" y1="290" x2="235" y2="293" style="stroke:Indigo" />
<line x1="250" y1="300" x2="264" y2="294" style="stroke:Indigo" />
<line x1="279" y1="290" x2="287" y2="277" style="stroke:Indigo" />
<line x1="298" y1="265" x2="296" y2="251" style="stroke:Indigo" />
<line x1="298" y1="235" x2="287" y2="224" style="stroke:Indigo" />
<line x1="279" y1="210" x2="265" y2="207" style="stroke:Indigo" />
<line x1="236" y1="206" x2="234" y2="221" style="stroke:OrangeRed" />
<line x1="213" y1="223" x2="220" y2="236" style="stroke:OrangeRed" />
<line x1="204" y1="249" x2="218" y2="256" style="stroke:OrangeRed" />
<line x1="213" y1="276" x2="227" y2="274" style="stroke:OrangeRed" />
<line x1="235" y1="293" x2="246" y2="283" style="stroke:OrangeRed" />
<line x1="264" y1="294" x2="266" y2="279" style="stroke:OrangeRed" />
<line x1="287" y1="277" x2="280" y2="264" style="stroke:OrangeRed" />
<line x1="296" y1="251" x2="282" y2="244" style="stroke:OrangeRed" />
<line x1="287" y1="224" x2="273" y2="226" style="stroke:OrangeRed" />
<line x1="265" y1="207" x2="254" y2="217" style="stroke:OrangeRed" />
<line x1="234" y1="221" x2="246" y2="231" style="stroke:Wheat" />
<line x1="220" y1="236" x2="235" y2="237" style="stroke:Wheat" />
<line x1="218" y1="256" x2="230" y2="248" style="stroke:Wheat" />
<line x1="227" y1="274" x2="233" y2="260" style="stroke:Wheat" />
<line x1="246" y1="283" x2="242" y2="268" style="stroke:Wheat" />
<line x1="266" y1="279" x2="254" y2="269" style="stroke:Wheat" />
<line x1="280" y1="264" x2="265" y2="263" style="stroke:Wheat" />
<line x1="282" y1="244" x2="270" y2="252" style="stroke:Wheat" />
<line x1="273" y1="226" x2="267" y2="240" style="stroke:Wheat" />
<line x1="254" y1="217" x2="258" y2="232" style="stroke:Wheat" />
<line x1="234" y1="221" x2="239" y2="220" style="stroke:Wheat" />
<line x1="220" y1="236" x2="223" y2="232" style="stroke:Wheat" />
<line x1="218" y1="256" x2="218" y2="252" style="stroke:Wheat" />
<line x1="227" y1="274" x2="225" y2="270" style="stroke:Wheat" />
<line x1="246" y1="283" x2="242" y2="281" style="stroke:Wheat" />
<line x1="266" y1="279" x2="261" y2="280" style="stroke:Wheat" />
<line x1="280" y1="264" x2="277" y2="268" style="stroke:Wheat" />
<line x1="282" y1="244" x2="282" y2="248" style="stroke:Wheat" />
<line x1="273" y1="226" x2="275" y2="230" style="stroke:Wheat" />
<line x1="254" y1="217" x2="258" y2="219" style="stroke:Wheat" />
<line x1="236" y1="206" x2="240" y2="209" style="stroke:OrangeRed" />
<line x1="213" y1="223" x2="218" y2="223" style="stroke:OrangeRed" />
<line x1="204" y1="249" x2="208" y2="247" style="stroke:OrangeRed" />
<line x1="213" y1="276" x2="214" y2="272" style="stroke:OrangeRed" />
<line x1="235" y1="293" x2="234" y2="289" style="stroke:OrangeRed" />
<line x1="264" y1="294" x2="260" y2="291" style="stroke:OrangeRed" />
<line x1="287" y1="277" x2="282" y2="277" style="stroke:OrangeRed" />
<line x1="296" y1="251" x2="292" y2="253" style="stroke:OrangeRed" />
<line x1="287" y1="224" x2="286" y2="228" style="stroke:OrangeRed" />
<line x1="265" y1="207" x2="266" y2="211" style="stroke:OrangeRed" />
<line x1="240" y1="209" x2="244" y2="208" style="stroke:Wheat" />
<line x1="218" y1="223" x2="220" y2="219" style="stroke:Wheat" />
<line x1="208" y1="247" x2="208" y2="243" style="stroke:Wheat" />
<line x1="214" y1="272" x2="212" y2="269" style="stroke:Wheat" />
<line x1="234" y1="289" x2="230" y2="288" style="stroke:Wheat" />
<line x1="260" y1="291" x2="256" y2="292" style="stroke:Wheat" />
<line x1="282" y1="277" x2="280" y2="281" style="stroke:Wheat" />
<line x1="292" y1="253" x2="292" y2="257" style="stroke:Wheat" />
<line x1="286" y1="228" x2="288" y2="231" style="stroke:Wheat" />
<line x1="266" y1="211" x2="270" y2="212" style="stroke:Wheat" />
<line x1="240" y1="209" x2="240" y2="208" style="stroke:Wheat" />
<line x1="218" y1="223" x2="217" y2="222" style="stroke:Wheat" />
<line x1="208" y1="247" x2="207" y2="246" style="stroke:Wheat" />
<line x1="214" y1="272" x2="213" y2="272" style="stroke:Wheat" />
<line x1="234" y1="289" x2="233" y2="290" style="stroke:Wheat" />
<line x1="260" y1="291" x2="260" y2="292" style="stroke:Wheat" />
<line x1="282" y1="277" x2="283" y2="278" style="stroke:Wheat" />
<line x1="292" y1="253" x2="293" y2="254" style="stroke:Wheat" />
<line x1="286" y1="228" x2="287" y2="228" style="stroke:Wheat" />
<line x1="266" y1="211" x2="267" y2="210" style="stroke:Wheat" />
</svg>
