<svg xmlns="http://www.w3.org/2000/svg" version="1.1" width="500" height="500">
<rect x="0" y="0" width="500" height="500" style="stroke:#000;fill:none" />
<line x1="250" y1="250" x2="250" y2="200" style="stroke:MidnightBlue" />
<line x1="250" y1="250" x2="207" y2="275" style="stroke:MidnightBlue" />
<line x1="250" y1="250" x2="293" y2="275" style="stroke:MidnightBlue" />
<line x1="250" y1="200" x2="231" y2="154" style="stroke:FireBrick" />
<line x1="207" y1="275" x2="177" y2="315" style="stroke:FireBrick" />
<line x1="293" y1="275" x2="343" y2="281" style="stroke:FireBrick" />
<line x1="231" y1="154" x2="195" y2="119" style="stroke:YellowGreen" />
<line x1="177" y1="315" x2="164" y2="363" style="stroke:YellowGreen" />
<line x1="343" y1="281" x2="391" y2="268" style="stroke:YellowGreen" />
<line x1="195" y1="119" x2="148" y2="101" style="stroke:Navy" />
<line x1="164" y1="363" x2="172" y2="413" style="stroke:Navy" />
<line x1="391" y1="268" x2="430" y2="236" style="stroke:Navy" />
<line x1="195" y1="119" x2="155" y2="120" style="stroke:Navy" />
<line x1="164" y1="363" x2="185" y2="397" style="stroke:Navy" />
<line x1="391" y1="268" x2="410" y2="232" style="stroke:Navy" />
<line x1="231" y1="154" x2="193" y2="139" style="stroke:YellowGreen" />
<line x1="177" y1="315" x2="183" y2="354" style="stroke:YellowGreen" />
<line x1="343" y1="281" x2="374" y2="256" style="stroke:YellowGreen" />
<line x1="193" y1="139" x2="153" y2="141" style="stroke:Navy" />
<line x1="183" y1="354" x2="204" y2="388" style="stroke:Navy" />
<line x1="374" y1="256" x2="393" y2="221" style="stroke:Navy" />
<line x1="193" y1="139" x2="164" y2="153" style="stroke:Navy" />
<line x1="183" y1="354" x2="209" y2="373" style="stroke:Navy" />
<line x1="374" y1="256" x2="377" y2="224" style="stroke:Navy" />
<line x1="250" y1="200" x2="221" y2="172" style="stroke:FireBrick" />
<line x1="207" y1="275" x2="197" y2="314" style="stroke:FireBrick" />
<line x1="293" y1="275" x2="332" y2="264" style="stroke:FireBrick" />
<line x1="221" y1="172" x2="184" y2="158" style="stroke:YellowGreen" />
<line x1="197" y1="314" x2="203" y2="353" style="stroke:YellowGreen" />
<line x1="332" y1="264" x2="363" y2="239" style="stroke:YellowGreen" />
<line x1="184" y1="158" x2="144" y2="159" style="stroke:Navy" />
<line x1="203" y1="353" x2="224" y2="387" style="stroke:Navy" />
<line x1="363" y1="239" x2="382" y2="204" style="stroke:Navy" />
<line x1="184" y1="158" x2="155" y2="171" style="stroke:Navy" />
<line x1="203" y1="353" x2="229" y2="372" style="stroke:Navy" />
<line x1="363" y1="239" x2="366" y2="207" style="stroke:Navy" />
<line x1="221" y1="172" x2="189" y2="173" style="stroke:YellowGreen" />
<line x1="197" y1="314" x2="214" y2="341" style="stroke:YellowGreen" />
<line x1="332" y1="264" x2="347" y2="236" style="stroke:YellowGreen" />
<line x1="189" y1="173" x2="160" y2="186" style="stroke:Navy" />
<line x1="214" y1="341" x2="240" y2="360" style="stroke:Navy" />
<line x1="347" y1="236" x2="350" y2="204" style="stroke:Navy" />
<line x1="189" y1="173" x2="172" y2="192" style="stroke:Navy" />
<line x1="214" y1="341" x2="239" y2="347" style="stroke:Navy" />
<line x1="347" y1="236" x2="339" y2="212" style="stroke:Navy" />
</svg>
