<svg xmlns="http://www.w3.org/2000/svg" version="1.1" width="500" height="500">
<rect x="0" y="0" width="500" height="500" style="stroke:#000;fill:none" />
<line x1="250" y1="250" x2="250" y2="200" style="stroke:DeepSkyBlue" />
<line x1="250" y1="250" x2="202" y2="235" style="stroke:DeepSkyBlue" />
<line x1="250" y1="250" x2="221" y2="290" style="stroke:DeepSkyBlue" />
<line x1="250" y1="250" x2="279" y2="290" style="stroke:DeepSkyBlue" />
<line x1="250" y1="250" x2="298" y2="235" style="stroke:DeepSkyBlue" />
<line x1="250" y1="200" x2="235" y2="152" style="stroke:LightSteelBlue" />
<line x1="202" y1="235" x2="152" y2="234" style="stroke:LightSteelBlue" />
<line x1="221" y1="290" x2="204" y2="338" style="stroke:LightSteelBlue" />
<line x1="279" y1="290" x2="319" y2="320" style="stroke:LightSteelBlue" />
<line x1="298" y1="235" x2="338" y2="206" style="stroke:LightSteelBlue" />
<line x1="235" y1="152" x2="207" y2="111" style="stroke:Purple" />
<line x1="152" y1="234" x2="104" y2="248" style="stroke:Purple" />
<line x1="204" y1="338" x2="203" y2="388" style="stroke:Purple" />
<line x1="319" y1="320" x2="367" y2="337" style="stroke:Purple" />
<line x1="338" y1="206" x2="369" y2="166" style="stroke:Purple" />
<line x1="207" y1="111" x2="168" y2="80" style="stroke:Blue" />
<line x1="104" y1="248" x2="63" y2="276" style="stroke:Blue" />
<line x1="203" y1="388" x2="216" y2="436" style="stroke:Blue" />
<line x1="367" y1="337" x2="416" y2="339" style="stroke:Blue" />
<line x1="369" y1="166" x2="386" y2="119" style="stroke:Blue" />
<line x1="168" y1="80" x2="121" y2="62" style="stroke:DarkViolet" />
<line x1="63" y1="276" x2="31" y2="314" style="stroke:DarkViolet" />
<line x1="216" y1="436" x2="244" y2="478" style="stroke:DarkViolet" />
<line x1="416" y1="339" x2="465" y2="327" style="stroke:DarkViolet" />
<line x1="386" y1="119" x2="389" y2="69" style="stroke:DarkViolet" />
<line x1="168" y1="80" x2="138" y2="78" style="stroke:DarkViolet" />
<line x1="63" y1="276" x2="52" y2="303" style="stroke:DarkViolet" />
<line x1="216" y1="436" x2="239" y2="455" style="stroke:DarkViolet" />
<line x1="416" y1="339" x2="442" y2="323" style="stroke:DarkViolet" />
<line x1="386" y1="119" x2="379" y2="90" style="stroke:DarkViolet" />
<line x1="207" y1="111" x2="179" y2="100" style="stroke:Blue" />
<line x1="104" y1="248" x2="86" y2="271" style="stroke:Blue" />
<line x1="203" y1="388" x2="219" y2="413" style="stroke:Blue" />
<line x1="367" y1="337" x2="396" y2="330" style="stroke:Blue" />
<line x1="369" y1="166" x2="371" y2="136" style="stroke:Blue" />
<line x1="179" y1="100" x2="149" y2="98" style="stroke:DarkViolet" />
<line x1="86" y1="271" x2="74" y2="299" style="stroke:DarkViolet" />
<line x1="219" y1="413" x2="242" y2="432" style="stroke:DarkViolet" />
<line x1="396" y1="330" x2="421" y2="314" style="stroke:DarkViolet" />
<line x1="371" y1="136" x2="363" y2="107" style="stroke:DarkViolet" />
<line x1="179" y1="100" x2="162" y2="104" style="stroke:DarkViolet" />
<line x1="86" y1="271" x2="84" y2="289" style="stroke:DarkViolet" />
<line x1="219" y1="413" x2="236" y2="420" style="stroke:DarkViolet" />
<line x1="396" y1="330" x2="407" y2="316" style="stroke:DarkViolet" />
<line x1="371" y1="136" x2="361" y2="121" style="stroke:DarkViolet" />
<line x1="235" y1="152" x2="212" y2="134" style="stroke:Purple" />
<line x1="152" y1="234" x2="127" y2="250" style="stroke:Purple" />
<line x1="204" y1="338" x2="213" y2="367" style="stroke:Purple" />
<line x1="319" y1="320" x2="349" y2="322" style="stroke:Purple" />
<line x1="338" y1="206" x2="349" y2="178" style="stroke:Purple" />
<line x1="212" y1="134" x2="184" y2="123" style="stroke:Blue" />
<line x1="127" y1="250" x2="108" y2="274" style="stroke:Blue" />
<line x1="213" y1="367" x2="229" y2="392" style="stroke:Blue" />
<line x1="349" y1="322" x2="378" y2="314" style="stroke:Blue" />
<line x1="349" y1="178" x2="351" y2="148" style="stroke:Blue" />
<line x1="184" y1="123" x2="154" y2="121" style="stroke:DarkViolet" />
<line x1="108" y1="274" x2="97" y2="301" style="stroke:DarkViolet" />
<line x1="229" y1="392" x2="252" y2="411" style="stroke:DarkViolet" />
<line x1="378" y1="314" x2="404" y2="298" style="stroke:DarkViolet" />
<line x1="351" y1="148" x2="343" y2="119" style="stroke:DarkViolet" />
<line x1="184" y1="123" x2="166" y2="127" style="stroke:DarkViolet" />
<line x1="108" y1="274" x2="107" y2="292" style="stroke:DarkViolet" />
<line x1="229" y1="392" x2="245" y2="399" style="stroke:DarkViolet" />
<line x1="378" y1="314" x2="390" y2="300" style="stroke:DarkViolet" />
<line x1="351" y1="148" x2="341" y2="132" style="stroke:DarkViolet" />
<line x1="212" y1="134" x2="194" y2="132" style="stroke:Blue" />
<line x1="127" y1="250" x2="121" y2="267" style="stroke:Blue" />
<line x1="213" y1="367" x2="226" y2="378" style="stroke:Blue" />
<line x1="349" y1="322" x2="365" y2="312" style="stroke:Blue" />
<line x1="349" y1="178" x2="345" y2="160" style="stroke:Blue" />
<line x1="194" y1="132" x2="176" y2="136" style="stroke:DarkViolet" />
<line x1="121" y1="267" x2="119" y2="285" style="stroke:DarkViolet" />
<line x1="226" y1="378" x2="243" y2="385" style="stroke:DarkViolet" />
<line x1="365" y1="312" x2="376" y2="299" style="stroke:DarkViolet" />
<line x1="345" y1="160" x2="335" y2="145" style="stroke:DarkViolet" />
<line x1="194" y1="132" x2="184" y2="138" style="stroke:DarkViolet" />
<line x1="121" y1="267" x2="123" y2="278" style="stroke:DarkViolet" />
<line x1="226" y1="378" x2="237" y2="379" style="stroke:DarkViolet" />
<line x1="365" y1="312" x2="369" y2="302" style="stroke:DarkViolet" />
<line x1="345" y1="160" x2="336" y2="153" style="stroke:DarkViolet" />
<line x1="250" y1="200" x2="233" y2="175" style="stroke:LightSteelBlue" />
<line x1="202" y1="235" x2="174" y2="243" style="stroke:LightSteelBlue" />
<line x1="221" y1="290" x2="220" y2="320" style="stroke:LightSteelBlue" />
<line x1="279" y1="290" x2="308" y2="301" style="stroke:LightSteelBlue" />
<line x1="298" y1="235" x2="316" y2="211" style="stroke:LightSteelBlue" />
<line x1="233" y1="175" x2="210" y2="157" style="stroke:Purple" />
<line x1="174" y1="243" x2="149" y2="260" style="stroke:Purple" />
<line x1="220" y1="320" x2="228" y2="349" style="stroke:Purple" />
<line x1="308" y1="301" x2="338" y2="302" style="stroke:Purple" />
<line x1="316" y1="211" x2="326" y2="183" style="stroke:Purple" />
<line x1="210" y1="157" x2="182" y2="146" style="stroke:Blue" />
<line x1="149" y1="260" x2="130" y2="283" style="stroke:Blue" />
<line x1="228" y1="349" x2="244" y2="375" style="stroke:Blue" />
<line x1="338" y1="302" x2="367" y2="294" style="stroke:Blue" />
<line x1="326" y1="183" x2="328" y2="153" style="stroke:Blue" />
<line x1="182" y1="146" x2="152" y2="144" style="stroke:DarkViolet" />
<line x1="130" y1="283" x2="118" y2="311" style="stroke:DarkViolet" />
<line x1="244" y1="375" x2="267" y2="394" style="stroke:DarkViolet" />
<line x1="367" y1="294" x2="392" y2="278" style="stroke:DarkViolet" />
<line x1="328" y1="153" x2="321" y2="124" style="stroke:DarkViolet" />
<line x1="182" y1="146" x2="164" y2="150" style="stroke:DarkViolet" />
<line x1="130" y1="283" x2="128" y2="301" style="stroke:DarkViolet" />
<line x1="244" y1="375" x2="261" y2="382" style="stroke:DarkViolet" />
<line x1="367" y1="294" x2="378" y2="281" style="stroke:DarkViolet" />
<line x1="328" y1="153" x2="319" y2="137" style="stroke:DarkViolet" />
<line x1="210" y1="157" x2="192" y2="155" style="stroke:Blue" />
<line x1="149" y1="260" x2="142" y2="276" style="stroke:Blue" />
<line x1="228" y1="349" x2="242" y2="361" style="stroke:Blue" />
<line x1="338" y1="302" x2="353" y2="292" style="stroke:Blue" />
<line x1="326" y1="183" x2="322" y2="165" style="stroke:Blue" />
<line x1="192" y1="155" x2="174" y2="159" style="stroke:DarkViolet" />
<line x1="142" y1="276" x2="140" y2="294" style="stroke:DarkViolet" />
<line x1="242" y1="361" x2="258" y2="368" style="stroke:DarkViolet" />
<line x1="353" y1="292" x2="365" y2="279" style="stroke:DarkViolet" />
<line x1="322" y1="165" x2="313" y2="150" style="stroke:DarkViolet" />
<line x1="192" y1="155" x2="182" y2="161" style="stroke:DarkViolet" />
<line x1="142" y1="276" x2="144" y2="287" style="stroke:DarkViolet" />
<line x1="242" y1="361" x2="252" y2="362" style="stroke:DarkViolet" />
<line x1="353" y1="292" x2="357" y2="282" style="stroke:DarkViolet" />
<line x1="322" y1="165" x2="314" y2="158" style="stroke:DarkViolet" />
<line x1="233" y1="175" x2="216" y2="169" style="stroke:Purple" />
<line x1="174" y1="243" x2="162" y2="257" style="stroke:Purple" />
<line x1="220" y1="320" x2="230" y2="336" style="stroke:Purple" />
<line x1="308" y1="301" x2="325" y2="296" style="stroke:Purple" />
<line x1="316" y1="211" x2="317" y2="193" style="stroke:Purple" />
<line x1="216" y1="169" x2="198" y2="167" style="stroke:Blue" />
<line x1="162" y1="257" x2="156" y2="274" style="stroke:Blue" />
<line x1="230" y1="336" x2="243" y2="347" style="stroke:Blue" />
<line x1="325" y1="296" x2="340" y2="286" style="stroke:Blue" />
<line x1="317" y1="193" x2="313" y2="175" style="stroke:Blue" />
<line x1="198" y1="167" x2="181" y2="172" style="stroke:DarkViolet" />
<line x1="156" y1="274" x2="154" y2="292" style="stroke:DarkViolet" />
<line x1="243" y1="347" x2="260" y2="354" style="stroke:DarkViolet" />
<line x1="340" y1="286" x2="352" y2="273" style="stroke:DarkViolet" />
<line x1="313" y1="175" x2="303" y2="160" style="stroke:DarkViolet" />
<line x1="198" y1="167" x2="189" y2="173" style="stroke:DarkViolet" />
<line x1="156" y1="274" x2="158" y2="284" style="stroke:DarkViolet" />
<line x1="243" y1="347" x2="254" y2="348" style="stroke:DarkViolet" />
<line x1="340" y1="286" x2="345" y2="277" style="stroke:DarkViolet" />
<line x1="313" y1="175" x2="304" y2="168" style="stroke:DarkViolet" />
<line x1="216" y1="169" x2="206" y2="171" style="stroke:Blue" />
<line x1="162" y1="257" x2="161" y2="268" style="stroke:Blue" />
<line x1="230" y1="336" x2="239" y2="340" style="stroke:Blue" />
<line x1="325" y1="296" x2="332" y2="288" style="stroke:Blue" />
<line x1="317" y1="193" x2="311" y2="184" style="stroke:Blue" />
<line x1="206" y1="171" x2="196" y2="177" style="stroke:DarkViolet" />
<line x1="161" y1="268" x2="164" y2="278" style="stroke:DarkViolet" />
<line x1="239" y1="340" x2="250" y2="341" style="stroke:DarkViolet" />
<line x1="332" y1="288" x2="336" y2="278" style="stroke:DarkViolet" />
<line x1="311" y1="184" x2="303" y2="176" style="stroke:DarkViolet" />
<line x1="206" y1="171" x2="201" y2="176" style="stroke:DarkViolet" />
<line x1="161" y1="268" x2="165" y2="273" style="stroke:DarkViolet" />
<line x1="239" y1="340" x2="246" y2="338" style="stroke:DarkViolet" />
<line x1="332" y1="288" x2="333" y2="281" style="stroke:DarkViolet" />
<line x1="311" y1="184" x2="305" y2="181" style="stroke:DarkViolet" />
</svg>
