<svg xmlns="http://www.w3.org/2000/svg" version="1.1" width="500" height="500">
<rect x="0" y="0" width="500" height="500" style="stroke:#000;fill:none" />
<line x1="375" y1="125" x2="375" y2="100" style="stroke:LightSkyBlue" />
<line x1="375" y1="125" x2="354" y2="137" style="stroke:LightSkyBlue" />
<line x1="375" y1="125" x2="397" y2="137" style="stroke:LightSkyBlue" />
<line x1="375" y1="100" x2="366" y2="77" style="stroke:Silver" />
<line x1="354" y1="137" x2="339" y2="157" style="stroke:Silver" />
<line x1="397" y1="137" x2="422" y2="140" style="stroke:Silver" />
<line x1="366" y1="77" x2="348" y2="59" style="stroke:DarkSalmon" />
<line x1="339" y1="157" x2="332" y2="181" style="stroke:DarkSalmon" />
<line x1="422" y1="140" x2="446" y2="134" style="stroke:DarkSalmon" />
<line x1="348" y1="59" x2="324" y2="50" style="stroke:MediumAquaMarine" />
<line x1="332" y1="181" x2="336" y2="206" style="stroke:MediumAquaMarine" />
<line x1="446" y1="134" x2="465" y2="118" style="stroke:MediumAquaMarine" />
<line x1="348" y1="59" x2="328" y2="60" style="stroke:MediumAquaMarine" />
<line x1="332" y1="181" x2="343" y2="198" style="stroke:MediumAquaMarine" />
<line x1="446" y1="134" x2="455" y2="116" style="stroke:MediumAquaMarine" />
<line x1="366" y1="77" x2="347" y2="69" style="stroke:DarkSalmon" />
<line x1="339" y1="157" x2="342" y2="177" style="stroke:DarkSalmon" />
<line x1="422" y1="140" x2="437" y2="128" style="stroke:DarkSalmon" />
<line x1="347" y1="69" x2="327" y2="70" style="stroke:MediumAquaMarine" />
<line x1="342" y1="177" x2="352" y2="194" style="stroke:MediumAquaMarine" />
<line x1="437" y1="128" x2="447" y2="110" style="stroke:MediumAquaMarine" />
<line x1="347" y1="69" x2="332" y2="76" style="stroke:MediumAquaMarine" />
<line x1="342" y1="177" x2="355" y2="186" style="stroke:MediumAquaMarine" />
<line x1="437" y1="128" x2="439" y2="112" style="stroke:MediumAquaMarine" />
<line x1="375" y1="100" x2="361" y2="86" style="stroke:Silver" />
<line x1="354" y1="137" x2="349" y2="157" style="stroke:Silver" />
<line x1="397" y1="137" x2="416" y2="132" style="stroke:Silver" />
<line x1="361" y1="86" x2="342" y2="79" style="stroke:DarkSalmon" />
<line x1="349" y1="157" x2="352" y2="176" style="stroke:DarkSalmon" />
<line x1="416" y1="132" x2="432" y2="119" style="stroke:DarkSalmon" />
<line x1="342" y1="79" x2="322" y2="79" style="stroke:MediumAquaMarine" />
<line x1="352" y1="176" x2="362" y2="193" style="stroke:MediumAquaMarine" />
<line x1="432" y1="119" x2="441" y2="102" style="stroke:MediumAquaMarine" />
<line x1="342" y1="79" x2="328" y2="85" style="stroke:MediumAquaMarine" />
<line x1="352" y1="176" x2="365" y2="186" style="stroke:MediumAquaMarine" />
<line x1="432" y1="119" x2="433" y2="103" style="stroke:MediumAquaMarine" />
<line x1="361" y1="86" x2="345" y2="86" style="stroke:DarkSalmon" />
<line x1="349" y1="157" x2="357" y2="170" style="stroke:DarkSalmon" />
<line x1="416" y1="132" x2="424" y2="118" style="stroke:DarkSalmon" />
<line x1="345" y1="86" x2="330" y2="93" style="stroke:MediumAquaMarine" />
<line x1="357" y1="170" x2="370" y2="180" style="stroke:MediumAquaMarine" />
<line x1="424" y1="118" x2="425" y2="102" style="stroke:MediumAquaMarine" />
<line x1="345" y1="86" x2="336" y2="96" style="stroke:MediumAquaMarine" />
<line x1="357" y1="170" x2="370" y2="173" style="stroke:MediumAquaMarine" />
<line x1="424" y1="118" x2="420" y2="106" style="stroke:MediumAquaMarine" />
<line x1="125" y1="125" x2="125" y2="100" style="stroke:LightSkyBlue" />
<line x1="125" y1="125" x2="146" y2="137" style="stroke:LightSkyBlue" />
<line x1="125" y1="125" x2="103" y2="137" style="stroke:LightSkyBlue" />
<line x1="125" y1="100" x2="134" y2="77" style="stroke:Silver" />
<line x1="146" y1="137" x2="161" y2="157" style="stroke:Silver" />
<line x1="103" y1="137" x2="78" y2="140" style="stroke:Silver" />
<line x1="134" y1="77" x2="152" y2="59" style="stroke:DarkSalmon" />
<line x1="161" y1="157" x2="168" y2="181" style="stroke:DarkSalmon" />
<line x1="78" y1="140" x2="54" y2="134" style="stroke:DarkSalmon" />
<line x1="152" y1="59" x2="176" y2="50" style="stroke:MediumAquaMarine" />
<line x1="168" y1="181" x2="164" y2="206" style="stroke:MediumAquaMarine" />
<line x1="54" y1="134" x2="35" y2="118" style="stroke:MediumAquaMarine" />
<line x1="152" y1="59" x2="172" y2="60" style="stroke:MediumAquaMarine" />
<line x1="168" y1="181" x2="157" y2="198" style="stroke:MediumAquaMarine" />
<line x1="54" y1="134" x2="45" y2="116" style="stroke:MediumAquaMarine" />
<line x1="134" y1="77" x2="153" y2="69" style="stroke:DarkSalmon" />
<line x1="161" y1="157" x2="158" y2="177" style="stroke:DarkSalmon" />
<line x1="78" y1="140" x2="63" y2="128" style="stroke:DarkSalmon" />
<line x1="153" y1="69" x2="173" y2="70" style="stroke:MediumAquaMarine" />
<line x1="158" y1="177" x2="148" y2="194" style="stroke:MediumAquaMarine" />
<line x1="63" y1="128" x2="53" y2="110" style="stroke:MediumAquaMarine" />
<line x1="153" y1="69" x2="168" y2="76" style="stroke:MediumAquaMarine" />
<line x1="158" y1="177" x2="145" y2="186" style="stroke:MediumAquaMarine" />
<line x1="63" y1="128" x2="61" y2="112" style="stroke:MediumAquaMarine" />
<line x1="125" y1="100" x2="139" y2="86" style="stroke:Silver" />
<line x1="146" y1="137" x2="151" y2="157" style="stroke:Silver" />
<line x1="103" y1="137" x2="84" y2="132" style="stroke:Silver" />
<line x1="139" y1="86" x2="158" y2="79" style="stroke:DarkSalmon" />
<line x1="151" y1="157" x2="148" y2="176" style="stroke:DarkSalmon" />
<line x1="84" y1="132" x2="68" y2="119" style="stroke:DarkSalmon" />
<line x1="158" y1="79" x2="178" y2="79" style="stroke:MediumAquaMarine" />
<line x1="148" y1="176" x2="138" y2="193" style="stroke:MediumAquaMarine" />
<line x1="68" y1="119" x2="59" y2="102" style="stroke:MediumAquaMarine" />
<line x1="158" y1="79" x2="172" y2="85" style="stroke:MediumAquaMarine" />
<line x1="148" y1="176" x2="135" y2="186" style="stroke:MediumAquaMarine" />
<line x1="68" y1="119" x2="67" y2="103" style="stroke:MediumAquaMarine" />
<line x1="139" y1="86" x2="155" y2="86" style="stroke:DarkSalmon" />
<line x1="151" y1="157" x2="143" y2="170" style="stroke:DarkSalmon" />
<line x1="84" y1="132" x2="76" y2="118" style="stroke:DarkSalmon" />
<line x1="155" y1="86" x2="170" y2="93" style="stroke:MediumAquaMarine" />
<line x1="143" y1="170" x2="130" y2="180" style="stroke:MediumAquaMarine" />
<line x1="76" y1="118" x2="75" y2="102" style="stroke:MediumAquaMarine" />
<line x1="155" y1="86" x2="164" y2="96" style="stroke:MediumAquaMarine" />
<line x1="143" y1="170" x2="130" y2="173" style="stroke:MediumAquaMarine" />
<line x1="76" y1="118" x2="80" y2="106" style="stroke:MediumAquaMarine" />
<line x1="375" y1="375" x2="375" y2="400" style="stroke:LightSkyBlue" />
<line x1="375" y1="375" x2="354" y2="363" style="stroke:LightSkyBlue" />
<line x1="375" y1="375" x2="397" y2="363" style="stroke:LightSkyBlue" />
<line x1="375" y1="400" x2="366" y2="423" style="stroke:Silver" />
<line x1="354" y1="363" x2="339" y2="343" style="stroke:Silver" />
<line x1="397" y1="363" x2="422" y2="360" style="stroke:Silver" />
<line x1="366" y1="423" x2="348" y2="441" style="stroke:DarkSalmon" />
<line x1="339" y1="343" x2="332" y2="319" style="stroke:DarkSalmon" />
<line x1="422" y1="360" x2="446" y2="366" style="stroke:DarkSalmon" />
<line x1="348" y1="441" x2="324" y2="450" style="stroke:MediumAquaMarine" />
<line x1="332" y1="319" x2="336" y2="294" style="stroke:MediumAquaMarine" />
<line x1="446" y1="366" x2="465" y2="382" style="stroke:MediumAquaMarine" />
<line x1="348" y1="441" x2="328" y2="440" style="stroke:MediumAquaMarine" />
<line x1="332" y1="319" x2="343" y2="302" style="stroke:MediumAquaMarine" />
<line x1="446" y1="366" x2="455" y2="384" style="stroke:MediumAquaMarine" />
<line x1="366" y1="423" x2="347" y2="431" style="stroke:DarkSalmon" />
<line x1="339" y1="343" x2="342" y2="323" style="stroke:DarkSalmon" />
<line x1="422" y1="360" x2="437" y2="372" style="stroke:DarkSalmon" />
<line x1="347" y1="431" x2="327" y2="430" style="stroke:MediumAquaMarine" />
<line x1="342" y1="323" x2="352" y2="306" style="stroke:MediumAquaMarine" />
<line x1="437" y1="372" x2="447" y2="390" style="stroke:MediumAquaMarine" />
<line x1="347" y1="431" x2="332" y2="424" style="stroke:MediumAquaMarine" />
<line x1="342" y1="323" x2="355" y2="314" style="stroke:MediumAquaMarine" />
<line x1="437" y1="372" x2="439" y2="388" style="stroke:MediumAquaMarine" />
<line x1="375" y1="400" x2="361" y2="414" style="stroke:Silver" />
<line x1="354" y1="363" x2="349" y2="343" style="stroke:Silver" />
<line x1="397" y1="363" x2="416" y2="368" style="stroke:Silver" />
<line x1="361" y1="414" x2="342" y2="421" style="stroke:DarkSalmon" />
<line x1="349" y1="343" x2="352" y2="324" style="stroke:DarkSalmon" />
<line x1="416" y1="368" x2="432" y2="381" style="stroke:DarkSalmon" />
<line x1="342" y1="421" x2="322" y2="421" style="stroke:MediumAquaMarine" />
<line x1="352" y1="324" x2="362" y2="307" style="stroke:MediumAquaMarine" />
<line x1="432" y1="381" x2="441" y2="398" style="stroke:MediumAquaMarine" />
<line x1="342" y1="421" x2="328" y2="415" style="stroke:MediumAquaMarine" />
<line x1="352" y1="324" x2="365" y2="314" style="stroke:MediumAquaMarine" />
<line x1="432" y1="381" x2="433" y2="397" style="stroke:MediumAquaMarine" />
<line x1="361" y1="414" x2="345" y2="414" style="stroke:DarkSalmon" />
<line x1="349" y1="343" x2="357" y2="330" style="stroke:DarkSalmon" />
<line x1="416" y1="368" x2="424" y2="382" style="stroke:DarkSalmon" />
<line x1="345" y1="414" x2="330" y2="407" style="stroke:MediumAquaMarine" />
<line x1="357" y1="330" x2="370" y2="320" style="stroke:MediumAquaMarine" />
<line x1="424" y1="382" x2="425" y2="398" style="stroke:MediumAquaMarine" />
<line x1="345" y1="414" x2="336" y2="404" style="stroke:MediumAquaMarine" />
<line x1="357" y1="330" x2="370" y2="327" style="stroke:MediumAquaMarine" />
<line x1="424" y1="382" x2="420" y2="394" style="stroke:MediumAquaMarine" />
<line x1="125" y1="375" x2="125" y2="400" style="stroke:LightSkyBlue" />
<line x1="125" y1="375" x2="146" y2="363" style="stroke:LightSkyBlue" />
<line x1="125" y1="375" x2="103" y2="363" style="stroke:LightSkyBlue" />
<line x1="125" y1="400" x2="134" y2="423" style="stroke:Silver" />
<line x1="146" y1="363" x2="161" y2="343" style="stroke:Silver" />
<line x1="103" y1="363" x2="78" y2="360" style="stroke:Silver" />
<line x1="134" y1="423" x2="152" y2="441" style="stroke:DarkSalmon" />
<line x1="161" y1="343" x2="168" y2="319" style="stroke:DarkSalmon" />
<line x1="78" y1="360" x2="54" y2="366" style="stroke:DarkSalmon" />
<line x1="152" y1="441" x2="176" y2="450" style="stroke:MediumAquaMarine" />
<line x1="168" y1="319" x2="164" y2="294" style="stroke:MediumAquaMarine" />
<line x1="54" y1="366" x2="35" y2="382" style="stroke:MediumAquaMarine" />
<line x1="152" y1="441" x2="172" y2="440" style="stroke:MediumAquaMarine" />
<line x1="168" y1="319" x2="157" y2="302" style="stroke:MediumAquaMarine" />
<line x1="54" y1="366" x2="45" y2="384" style="stroke:MediumAquaMarine" />
<line x1="134" y1="423" x2="153" y2="431" style="stroke:DarkSalmon" />
<line x1="161" y1="343" x2="158" y2="323" style="stroke:DarkSalmon" />
<line x1="78" y1="360" x2="63" y2="372" style="stroke:DarkSalmon" />
<line x1="153" y1="431" x2="173" y2="430" style="stroke:MediumAquaMarine" />
<line x1="158" y1="323" x2="148" y2="306" style="stroke:MediumAquaMarine" />
<line x1="63" y1="372" x2="53" y2="390" style="stroke:MediumAquaMarine" />
<line x1="153" y1="431" x2="168" y2="424" style="stroke:MediumAquaMarine" />
<line x1="158" y1="323" x2="145" y2="314" style="stroke:MediumAquaMarine" />
<line x1="63" y1="372" x2="61" y2="388" style="stroke:MediumAquaMarine" />
<line x1="125" y1="400" x2="139" y2="414" style="stroke:Silver" />
<line x1="146" y1="363" x2="151" y2="343" style="stroke:Silver" />
<line x1="103" y1="363" x2="84" y2="368" style="stroke:Silver" />
<line x1="139" y1="414" x2="158" y2="421" style="stroke:DarkSalmon" />
<line x1="151" y1="343" x2="148" y2="324" style="stroke:DarkSalmon" />
<line x1="84" y1="368" x2="68" y2="381" style="stroke:DarkSalmon" />
<line x1="158" y1="421" x2="178" y2="421" style="stroke:MediumAquaMarine" />
<line x1="148" y1="324" x2="138" y2="307" style="stroke:MediumAquaMarine" />
<line x1="68" y1="381" x2="59" y2="398" style="stroke:MediumAquaMarine" />
<line x1="158" y1="421" x2="172" y2="415" style="stroke:MediumAquaMarine" />
<line x1="148" y1="324" x2="135" y2="314" style="stroke:MediumAquaMarine" />
<line x1="68" y1="381" x2="67" y2="397" style="stroke:MediumAquaMarine" />
<line x1="139" y1="414" x2="155" y2="414" style="stroke:DarkSalmon" />
<line x1="151" y1="343" x2="143" y2="330" style="stroke:DarkSalmon" />
<line x1="84" y1="368" x2="76" y2="382" style="stroke:DarkSalmon" />
<line x1="155" y1="414" x2="170" y2="407" style="stroke:MediumAquaMarine" />
<line x1="143" y1="330" x2="130" y2="320" style="stroke:MediumAquaMarine" />
<line x1="76" y1="382" x2="75" y2="398" style="stroke:MediumAquaMarine" />
<line x1="155" y1="414" x2="164" y2="404" style="stroke:MediumAquaMarine" />
<line x1="143" y1="330" x2="130" y2="327" style="stroke:MediumAquaMarine" />
<line x1="76" y1="382" x2="80" y2="394" style="stroke:MediumAquaMarine" />
</svg>
