<svg xmlns="http://www.w3.org/2000/svg" version="1.1" width="500" height="500">
<rect x="0" y="0" width="500" height="500" style="stroke:#000;fill:none" />
<line x1="250" y1="250" x2="250" y2="200" style="stroke:Red" />
<line x1="250" y1="250" x2="207" y2="275" style="stroke:Red" />
<line x1="250" y1="250" x2="293" y2="275" style="stroke:Red" />
<line x1="250" y1="200" x2="235" y2="152" style="stroke:Cyan" />
<line x1="207" y1="275" x2="173" y2="312" style="stroke:Cyan" />
<line x1="293" y1="275" x2="342" y2="286" style="stroke:Cyan" />
<line x1="235" y1="152" x2="207" y2="111" style="stroke:DarkSalmon" />
<line x1="173" y1="312" x2="151" y2="357" style="stroke:DarkSalmon" />
<line x1="342" y1="286" x2="392" y2="282" style="stroke:DarkSalmon" />
<line x1="235" y1="152" x2="223" y2="143" style="stroke:DarkSalmon" />
<line x1="173" y1="312" x2="171" y2="327" style="stroke:DarkSalmon" />
<line x1="342" y1="286" x2="356" y2="281" style="stroke:DarkSalmon" />
<line x1="250" y1="200" x2="242" y2="188" style="stroke:Cyan" />
<line x1="207" y1="275" x2="200" y2="289" style="stroke:Cyan" />
<line x1="293" y1="275" x2="308" y2="274" style="stroke:Cyan" />
<line x1="242" y1="188" x2="230" y2="178" style="stroke:DarkSalmon" />
<line x1="200" y1="289" x2="198" y2="303" style="stroke:DarkSalmon" />
<line x1="308" y1="274" x2="322" y2="268" style="stroke:DarkSalmon" />
<line x1="242" y1="188" x2="237" y2="186" style="stroke:DarkSalmon" />
<line x1="200" y1="289" x2="201" y2="293" style="stroke:DarkSalmon" />
<line x1="308" y1="274" x2="312" y2="271" style="stroke:DarkSalmon" />
</svg>
